<svg width="48" height="48" viewBox="0 0 48 48" fill="none" xmlns="http://www.w3.org/2000/svg">
<path fill-rule="evenodd" clip-rule="evenodd" d="M0 24C0 10.7438 10.7438 0 24 0C37.2562 0 48 10.7438 48 24C48 37.2562 37.2562 48 24 48C10.7438 48 0 37.2562 0 24ZM27.1031 35.5452C27.7828 36.1827 28.8516 36.1498 29.4891 35.4702C30.1266 34.7905 30.0937 33.7217 29.4141 33.0842L19.6734 23.953L29.4094 14.8264C30.0891 14.1889 30.1219 13.1202 29.4844 12.4405C28.8469 11.7608 27.7781 11.728 27.0984 12.3655L16.0453 22.7248C15.7078 23.0389 15.5156 23.4842 15.5156 23.953C15.5156 24.4217 15.7078 24.867 16.05 25.1858L27.1031 35.5452Z" fill="#242937"/>
</svg>
