<svg width="37" height="26" viewBox="0 0 37 26" fill="none" xmlns="http://www.w3.org/2000/svg">
<path d="M16.2065 21.669C16.7689 21.669 17.2752 22.119 17.2752 22.7377C17.2752 23.3002 16.8252 23.8064 16.2065 23.8064C15.644 23.8064 15.1378 23.3564 15.1378 22.7377C15.1378 22.119 15.644 21.669 16.2065 21.669ZM32.743 15.1444C32.1806 15.1444 31.6744 14.6944 31.6744 14.0757C31.6744 13.5132 32.1243 13.007 32.743 13.007C33.3055 13.007 33.8117 13.457 33.8117 14.0757C33.8117 14.6381 33.3055 15.1444 32.743 15.1444ZM32.743 10.8134C30.9431 10.8134 29.4807 12.2758 29.4807 14.0757C29.4807 14.4132 29.537 14.7506 29.6495 15.0881L18.9063 20.8253C18.2876 19.9253 17.2752 19.4191 16.2065 19.4191C14.9691 19.4191 13.8441 20.1503 13.2816 21.219L3.6072 16.1568C2.59476 15.5943 1.8073 13.9632 1.91979 12.3883C1.97604 11.6008 2.25727 10.9821 2.651 10.7571C2.93224 10.5884 3.21347 10.6446 3.6072 10.8134L3.66344 10.8696C6.2508 12.2195 14.6316 16.6068 14.9691 16.7755C15.5315 17.0005 15.8128 17.113 16.7689 16.663L34.093 7.66354C34.3742 7.55105 34.6554 7.32606 34.6554 6.93233C34.6554 6.42611 34.1492 6.20112 34.1492 6.20112C33.1368 5.75115 31.6181 5.01994 30.1557 4.34498C27.0059 2.88256 23.4061 1.19516 21.8312 0.351455C20.4812 -0.379753 19.3563 0.238962 19.1876 0.351455L18.7938 0.520196C11.6505 4.11999 2.20103 8.78848 1.63856 9.12596C0.682364 9.68843 0.0636494 10.8696 0.00740258 12.332C-0.105091 14.6381 1.07609 17.0568 2.7635 17.9005L13.0004 23.1877C13.2254 24.7626 14.6316 26 16.2065 26C18.0064 26 19.4125 24.5938 19.4688 22.7939L30.7182 16.7193C31.2806 17.1693 32.0118 17.3942 32.743 17.3942C34.5429 17.3942 36.0054 15.9318 36.0054 14.1319C36.0054 12.2758 34.5429 10.8134 32.743 10.8134Z" fill="#4F4F4F"/>
</svg>
