<svg width="48" height="48" viewBox="0 0 48 48" fill="none" xmlns="http://www.w3.org/2000/svg">
<path fill-rule="evenodd" clip-rule="evenodd" d="M48 24C48 37.2562 37.2562 48 24 48C10.7438 48 9.39249e-07 37.2562 2.09815e-06 24C3.25704e-06 10.7437 10.7438 -3.25704e-06 24 -2.09815e-06C37.2563 -9.39249e-07 48 10.7438 48 24ZM20.8969 12.4548C20.2172 11.8173 19.1484 11.8501 18.5109 12.5298C17.8734 13.2095 17.9063 14.2783 18.5859 14.9158L28.3266 24.047L18.5906 33.1736C17.9109 33.8111 17.8781 34.8798 18.5156 35.5595C19.1531 36.2392 20.2219 36.272 20.9016 35.6345L31.9547 25.2752C32.2922 24.9611 32.4844 24.5158 32.4844 24.047C32.4844 23.5783 32.2922 23.133 31.95 22.8142L20.8969 12.4548Z" fill="#242937"/>
</svg>
