<svg width="30" height="25" viewBox="0 0 30 25" fill="none" xmlns="http://www.w3.org/2000/svg">
<path d="M29.532 2.91598C28.4454 3.41057 27.2777 3.74485 26.0521 3.89519C27.3031 3.12553 28.2637 1.90685 28.7161 0.454788C27.5455 1.16735 26.2488 1.68489 24.8687 1.96384C23.7634 0.755245 22.1888 0 20.4462 0C17.1 0 14.3872 2.78427 14.3872 6.21846C14.3872 6.70584 14.4408 7.18048 14.5441 7.6356C9.50859 7.37627 5.04417 4.90055 2.05586 1.1383C1.53434 2.05674 1.23555 3.12497 1.23555 4.2646C1.23555 6.42202 2.30529 8.32543 3.93101 9.44056C2.93775 9.40829 2.00358 9.12857 1.18662 8.66281C1.18618 8.68875 1.18618 8.7148 1.18618 8.74097C1.18618 11.754 3.27467 14.2674 6.04639 14.8386C5.53794 14.9807 5.00269 15.0567 4.45005 15.0567C4.05966 15.0567 3.68007 15.0177 3.31021 14.9451C4.08116 17.4157 6.31871 19.2136 8.96999 19.2638C6.89641 20.9316 4.28391 21.9258 1.44533 21.9258C0.956314 21.9258 0.473998 21.8964 0 21.839C2.68131 23.6034 5.8661 24.6328 9.28768 24.6328C20.432 24.6328 26.5262 15.1571 26.5262 6.93956C26.5262 6.66992 26.5203 6.40173 26.5087 6.13509C27.6924 5.25833 28.7197 4.16305 29.532 2.91598Z" fill="#4F4F4F"/>
</svg>
