<svg width="32" height="32" viewBox="0 0 32 32" fill="none" xmlns="http://www.w3.org/2000/svg">
<path d="M15.9999 31.9031C7.2168 31.9031 0.0966797 24.783 0.0966797 15.9999C0.0966797 7.2168 7.2168 0.0966797 15.9999 0.0966797C24.783 0.0966797 31.9031 7.2168 31.9031 15.9999C31.8935 24.779 24.779 31.8935 15.9999 31.9031ZM15.9999 3.27732C8.97342 3.27732 3.27732 8.97342 3.27732 15.9999C3.27732 23.0264 8.97342 28.7225 15.9999 28.7225C23.0264 28.7225 28.7225 23.0264 28.7225 15.9999C28.7146 8.97669 23.0231 3.28521 15.9999 3.27732ZM23.9515 17.5902H14.4096V8.04829H17.5902V14.4096H23.9515V17.5902Z" fill="#242937"/>
</svg>
